<svg width="28" height="28" viewBox="0 0 28 28" fill="none" xmlns="http://www.w3.org/2000/svg"><path fill-rule="evenodd" clip-rule="evenodd" d="M22 5H6a2 2 0 0 0-2 2v10c0 1.1.9 2 2 2h7.75v3.5h-5a.75.75 0 0 0 0 1.5h11.5a.75.75 0 0 0 0-1.5h-5V19H22a2 2 0 0 0 2-2V7a2 2 0 0 0-2-2z" fill="#131722"/><path d="M8.45 13.5a.75.75 0 0 0 1.1 1l-1.1-1zm4.19-3.5l.55-.5a.75.75 0 0 0-1.1 0l.55.5zm2.72 3l-.55.5a.75.75 0 0 0 1.1 0l-.55-.5zm4.2-3.5a.75.75 0 0 0-1.11-1l1.1 1zm-10 5l3.63-4-1.1-1-3.64 4 1.1 1zm2.52-4l2.73 3 1.1-1-2.72-3-1.1 1zm3.84 3l3.63-4-1.1-1-3.64 4 1.1 1z" fill="#F0F3FA"/></svg>